{"title":"Cosmos Space Time Odyssey S01E02 HDTV PROPER x264 AAC E-Subs [GW","uid":9777264,"size":165380696,"categoryP":"video","categoryS":"tv_shows","magnet":"?xt=urn:btih:88d559f3dfdd204efd47f7502bcedc6c946e44b3&amp;dn=Cosmos+Space+Time+Odyssey+S01E02+HDTV+PROPER+x264+AAC+E-Subs+%5BGW&amp;tr=udp%3A%2F%2Ftracker.openbittorrent.com%3A80&amp;tr=udp%3A%2F%2Fopen.demonii.com%3A1337&amp;tr=udp%3A%2F%2Ftracker.coppersurfer.tk%3A6969&amp;tr=udp%3A%2F%2Fexodus.desync.com%3A6969","seeders":1,"leechers":0,"uploader":"canc232","files":1,"time":1395051624,"description":"Cosmos Space Time Odyssey S01E02 HDTV PROPER x264 AAC E-Subs [GWC] \n\n\nSUMMARY :\nA documentary series that explores how we discovered the laws of nature and found our coordinates in space and time. \n\n\nSCREENS : &lt;a href=&quot;\nhttp://i.imgur.com/9TQ3StK.jpg&quot; rel=&quot;nofollow&quot; target=&quot;_NEW&quot;&gt;\nhttp://i.imgur.com/9TQ3StK.jpg&lt;/a&gt; &lt;a href=&quot;\nhttp://i.imgur.com/JqCH2q8.jpg&quot; rel=&quot;nofollow&quot; target=&quot;_NEW&quot;&gt;\nhttp://i.imgur.com/JqCH2q8.jpg&lt;/a&gt; &lt;a href=&quot;\nhttp://i.imgur.com/X5scT1O.jpg&quot; rel=&quot;nofollow&quot; target=&quot;_NEW&quot;&gt;\nhttp://i.imgur.com/X5scT1O.jpg&lt;/a&gt;\n\n\nMEDIA INFO :\nGeneral \nFormat : MPEG-4 \nFormat profile : Base Media \nFile size : 158 MiB \nDuration : 42mn 23s \nOverall bit rate mode : Variable \nOverall bit rate : 520 Kbps \n\nVideo \nFormat : AVC \nFormat profile : &lt;a class=&quot;__cf_email__&quot; href=&quot;/cdn-cgi/l/email-protection&quot; data-cfemail=&quot;024a6b656a424e312c32&quot;&gt;[email&amp;#160;protected]&lt;/a&gt;&lt;script cf-hash='f9e31' type=&quot;text/javascript&quot;&gt;\n/* &lt;![CDATA[ */!function(){try{var t=&quot;currentScript&quot;in document?document.currentScript:function(){for(var t=document.getElementsByTagName(&quot;script&quot;),e=t.length;e--;)if(t[e].getAttribute(&quot;cf-hash&quot;))return t[e]}();if(t&amp;&amp;t.previousSibling){var e,r,n,i,c=t.previousSibling,a=c.getAttribute(&quot;data-cfemail&quot;);if(a){for(e=&quot;&quot;,r=parseInt(a.substr(0,2),16),n=2;a.length-n;n+=2)i=parseInt(a.substr(n,2),16)^r,e+=String.fromCharCode(i);e=document.createTextNode(e),c.parentNode.replaceChild(e,c)}}}catch(u){}}();/* ]]&gt; */&lt;/script&gt; \nFormat settings, CABAC : Yes \nFormat settings, ReFrames : 4 frames \nDuration : 42mn 21s \nBit rate : 458 Kbps \nMaximum bit rate : 2 135 Kbps \nWidth : 720 pixels \nHeight : 404 pixels \nDisplay aspect ratio : 16:9 \nFrame rate : 23.976 fps  \nStream size : 139 MiB (88%) \nTitle : osmos Space Time Odyssey S01E02 HDTV PROPER x264 AAC E-Subs [GWC]  \nWriting library : x264 core\n\nAudio \nFormat : AAC \nFormat profile : HE-AAC / LC \nDuration : 42mn 21s \nBit rate mode : Variable \nChannel(s) : 2 channels \nSampling rate : 48.0 KHz / 24.0 KHz \nStream size : 17.9 MiB (11%) \nLanguage : English \n\nText \nFormat : Timed Text \nTitle : English Subtitle by n17t01 \nLanguage : English ","torrent":{"xt":"urn:btih:88d559f3dfdd204efd47f7502bcedc6c946e44b3","amp;dn":"Cosmos+Space+Time+Odyssey+S01E02+HDTV+PROPER+x264+AAC+E-Subs+%5BGW","amp;tr":["udp%3A%2F%2Ftracker.openbittorrent.com%3A80","udp%3A%2F%2Fopen.demonii.com%3A1337","udp%3A%2F%2Ftracker.coppersurfer.tk%3A6969","udp%3A%2F%2Fexodus.desync.com%3A6969"],"infoHash":"88d559f3dfdd204efd47f7502bcedc6c946e44b3","infoHashBuffer":{"type":"Buffer","data":[136,213,89,243,223,221,32,78,253,71,247,80,43,206,220,108,148,110,68,179]},"announce":[],"urlList":[]}}